<?xml version="1.0" encoding="UTF-8"?>
<svg width="172px" height="193px" viewBox="0 0 172 193" version="1.1" xmlns="http://www.w3.org/2000/svg" xmlns:xlink="http://www.w3.org/1999/xlink">
    <!-- Generator: Sketch 43.2 (39069) - http://www.bohemiancoding.com/sketch -->
    <title>Group</title>
    <desc>Created with Sketch.</desc>
    <defs/>
    <g id="Page-1" stroke="none" stroke-width="1" fill="none" fill-rule="evenodd">
        <g id="Group" fill-rule="nonzero">
            <path d="M171.391,55.799 C170.416,49.652 166.718,44.157 161.241,40.994 L96.382,3.546 C93.218,1.72 89.616,0.756 85.965,0.756 C82.314,0.756 78.712,1.72 75.55,3.544 L10.691,40.992 C4.264,44.705 0.273,51.617 0.273,59.035 L0.273,133.925 C0.273,141.343 4.264,148.256 10.689,151.967 L75.548,189.413 C78.713,191.24 82.315,192.204 85.965,192.204 C89.615,192.204 93.217,191.24 96.38,189.414 L161.239,151.969 C166.718,148.803 170.417,143.309 171.391,137.161 L171.391,55.799 Z M154.875,140.946 L90.018,178.39 C88.764,179.114 87.364,179.477 85.964,179.477 C84.564,179.477 83.164,179.114 81.91,178.39 L17.053,140.946 C14.545,139.497 13,136.821 13,133.925 L13,59.035 C13,56.139 14.545,53.463 17.053,52.014 L81.91,14.568 C83.164,13.843 84.564,13.482 85.964,13.482 C87.364,13.482 88.764,13.843 90.018,14.568 L154.875,52.014 C157.383,53.462 158.928,56.138 158.928,59.035 L158.928,133.925 C158.928,136.821 157.383,139.497 154.875,140.946 Z" id="Shape" fill="#83E8C2"/>
            <path d="M158.928,59.035 C158.928,56.139 157.383,53.463 154.875,52.014 L90.018,14.568 C88.764,13.843 87.364,13.482 85.964,13.482 C84.564,13.482 83.164,13.843 81.91,14.568 L17.053,52.014 C14.545,53.462 13,56.138 13,59.035 L13,133.925 C13,136.821 14.545,139.497 17.053,140.946 L81.91,178.39 C83.164,179.114 84.564,179.477 85.964,179.477 C87.364,179.477 88.764,179.114 90.018,178.39 L154.875,140.946 C157.383,139.497 158.928,136.821 158.928,133.925 L158.928,59.035 Z M112.162,90.716 C112.281,90.647 112.404,90.598 112.527,90.567 C112.571,90.555 112.615,90.557 112.658,90.549 C112.734,90.537 112.81,90.52 112.886,90.52 C112.891,90.52 112.895,90.521 112.901,90.521 C112.921,90.522 112.939,90.526 112.96,90.527 C113.053,90.532 113.144,90.546 113.233,90.567 C113.266,90.576 113.299,90.587 113.333,90.597 C113.41,90.622 113.483,90.654 113.556,90.692 C113.584,90.706 113.613,90.719 113.64,90.735 C113.734,90.792 113.824,90.857 113.903,90.934 C113.91,90.942 113.916,90.951 113.924,90.958 C113.994,91.029 114.057,91.108 114.112,91.193 C114.13,91.222 114.145,91.252 114.162,91.283 C114.202,91.355 114.234,91.431 114.261,91.512 C114.273,91.545 114.284,91.577 114.293,91.611 C114.321,91.726 114.342,91.845 114.342,91.972 L114.342,108.181 L111.064,110.074 C110.739,110.262 110.508,110.561 110.386,110.904 C110.328,111.068 110.288,111.238 110.288,111.418 L110.288,115.203 L96.25,123.307 C96.247,123.309 96.243,123.309 96.24,123.311 C96.124,123.376 96.005,123.425 95.886,123.457 C95.841,123.469 95.796,123.468 95.751,123.475 C95.677,123.487 95.601,123.504 95.526,123.504 C95.522,123.504 95.517,123.503 95.512,123.503 C95.492,123.502 95.473,123.498 95.453,123.497 C95.36,123.492 95.269,123.478 95.18,123.456 C95.146,123.448 95.114,123.437 95.08,123.426 C95.003,123.402 94.929,123.37 94.857,123.332 C94.828,123.317 94.8,123.305 94.773,123.288 C94.679,123.231 94.589,123.167 94.51,123.09 C94.501,123.082 94.495,123.071 94.487,123.063 C94.418,122.993 94.357,122.915 94.302,122.831 C94.283,122.802 94.268,122.771 94.251,122.741 C94.212,122.669 94.18,122.593 94.153,122.512 C94.141,122.478 94.13,122.446 94.12,122.411 C94.092,122.297 94.072,122.179 94.072,122.053 C94.072,122.053 94.071,122.052 94.071,122.051 L94.071,101.998 C94.071,101.609 94.227,101.243 94.495,100.975 C94.583,100.886 94.684,100.807 94.798,100.743 L112.162,90.716 Z M85.238,31.369 C85.463,31.239 85.713,31.174 85.964,31.174 C86.215,31.174 86.465,31.239 86.69,31.369 L132.431,57.779 C133.398,58.337 133.398,59.733 132.431,60.291 L115.065,70.318 C114.84,70.447 114.59,70.511 114.339,70.511 C114.088,70.511 113.838,70.447 113.613,70.318 L98.123,61.375 L99.85,60.379 C100.885,59.781 100.885,58.288 99.85,57.691 L86.739,50.121 C86.5,49.982 86.231,49.914 85.964,49.914 C85.697,49.914 85.429,49.982 85.189,50.121 L81.911,52.014 L67.873,43.91 C66.906,43.351 66.906,41.956 67.873,41.397 L85.238,31.369 Z M57.588,47.558 C57.839,47.558 58.089,47.623 58.314,47.752 L73.803,56.694 L72.076,57.691 C71.042,58.288 71.042,59.781 72.076,60.379 L73.803,61.375 L58.315,70.318 C58.09,70.447 57.84,70.511 57.589,70.511 C57.338,70.511 57.088,70.447 56.863,70.318 L39.497,60.291 C38.529,59.733 38.529,58.337 39.497,57.779 L56.863,47.752 C57.088,47.623 57.338,47.558 57.588,47.558 Z M48.028,139.886 C47.787,139.886 47.539,139.824 47.304,139.69 L29.939,129.664 C29.49,129.405 29.213,128.926 29.213,128.408 L29.213,75.59 C29.213,74.743 29.907,74.137 30.665,74.137 C30.907,74.137 31.155,74.199 31.389,74.334 L48.755,84.359 C49.204,84.619 49.481,85.097 49.481,85.616 L49.481,103.502 L47.754,102.505 C47.504,102.36 47.239,102.295 46.981,102.295 C46.17,102.294 45.427,102.942 45.427,103.849 L45.427,118.988 C45.427,119.543 45.722,120.055 46.202,120.332 L49.48,122.226 L49.48,138.435 C49.481,139.28 48.786,139.886 48.028,139.886 Z M77.856,154.815 C77.856,155.662 77.162,156.268 76.404,156.268 C76.162,156.268 75.914,156.206 75.679,156.072 L58.314,146.046 C57.865,145.786 57.588,145.308 57.588,144.789 L57.588,126.904 L59.314,127.9 C59.564,128.045 59.829,128.111 60.087,128.111 C60.898,128.111 61.641,127.463 61.641,126.556 L61.641,124.563 L77.13,133.505 C77.579,133.765 77.856,134.243 77.856,134.762 L77.856,154.815 L77.856,154.815 Z M77.856,122.047 C77.856,122.174 77.836,122.293 77.807,122.407 C77.798,122.442 77.786,122.474 77.775,122.508 C77.749,122.588 77.716,122.665 77.676,122.737 C77.659,122.767 77.644,122.798 77.626,122.827 C77.57,122.912 77.509,122.991 77.438,123.062 C77.43,123.07 77.424,123.08 77.417,123.087 C77.337,123.163 77.248,123.229 77.153,123.286 C77.127,123.302 77.098,123.314 77.071,123.329 C76.999,123.366 76.924,123.398 76.846,123.424 C76.813,123.435 76.782,123.445 76.747,123.453 C76.656,123.476 76.564,123.49 76.469,123.494 C76.451,123.495 76.433,123.5 76.414,123.5 C76.409,123.5 76.404,123.501 76.399,123.501 C76.322,123.501 76.244,123.483 76.166,123.471 C76.123,123.464 76.082,123.466 76.041,123.454 C75.917,123.422 75.794,123.373 75.675,123.305 L61.64,115.201 L61.64,115.201 L61.64,111.417 C61.64,111.14 61.566,110.873 61.432,110.642 C61.298,110.41 61.104,110.212 60.864,110.074 L57.588,108.182 L57.588,91.976 C57.588,91.849 57.608,91.73 57.637,91.615 C57.646,91.581 57.658,91.549 57.669,91.515 C57.695,91.435 57.728,91.359 57.768,91.286 C57.785,91.256 57.8,91.224 57.819,91.195 C57.873,91.111 57.935,91.032 58.006,90.961 C58.014,90.953 58.02,90.943 58.027,90.936 C58.106,90.86 58.195,90.794 58.29,90.737 C58.317,90.721 58.346,90.708 58.374,90.694 C58.446,90.656 58.52,90.625 58.598,90.599 C58.631,90.588 58.662,90.578 58.697,90.569 C58.788,90.547 58.881,90.533 58.975,90.528 C58.994,90.528 59.011,90.523 59.03,90.523 C59.035,90.523 59.04,90.522 59.045,90.522 C59.123,90.522 59.202,90.54 59.281,90.552 C59.321,90.559 59.362,90.557 59.403,90.569 C59.527,90.6 59.649,90.649 59.769,90.718 L77.13,100.741 C77.356,100.871 77.537,101.055 77.662,101.273 C77.787,101.49 77.856,101.74 77.856,102 L77.856,122.047 L77.856,122.047 Z M67.872,76.674 C67.631,76.534 67.449,76.342 67.328,76.124 C67.086,75.687 67.086,75.146 67.328,74.711 C67.449,74.492 67.631,74.301 67.872,74.161 L81.91,66.057 L85.187,67.949 C85.667,68.225 86.258,68.225 86.738,67.949 L90.016,66.056 L104.054,74.161 C105.022,74.719 105.022,76.115 104.054,76.674 L86.689,86.7 C86.464,86.83 86.214,86.894 85.963,86.894 C85.712,86.894 85.462,86.83 85.237,86.7 L67.872,76.674 Z M142.714,128.407 C142.714,128.925 142.438,129.404 141.988,129.663 L96.247,156.072 C96.014,156.207 95.766,156.268 95.523,156.268 C94.765,156.268 94.07,155.662 94.07,154.815 L94.07,134.762 C94.07,134.243 94.347,133.765 94.797,133.505 L110.285,124.564 L110.285,126.556 C110.285,127.462 111.028,128.111 111.838,128.111 C112.098,128.111 112.361,128.045 112.612,127.901 L125.722,120.331 C126.202,120.055 126.498,119.542 126.498,118.987 L126.498,115.203 L140.536,107.098 C140.77,106.963 141.018,106.902 141.26,106.902 C142.018,106.902 142.713,107.508 142.713,108.355 L142.713,128.407 L142.714,128.407 Z M142.714,95.643 C142.714,96.162 142.438,96.64 141.988,96.899 L126.499,105.842 L126.499,103.849 C126.499,102.943 125.755,102.295 124.945,102.295 C124.686,102.294 124.422,102.36 124.172,102.505 L122.445,103.501 L122.445,85.616 C122.445,85.097 122.722,84.619 123.172,84.359 L140.537,74.334 C140.771,74.199 141.019,74.137 141.261,74.137 C142.019,74.137 142.714,74.743 142.714,75.59 L142.714,95.643 Z" id="Shape" fill="#111D5A"/>
            <path d="M59.402,90.568 C59.525,90.599 59.649,90.648 59.768,90.717 C59.648,90.648 59.526,90.6 59.402,90.568 Z" id="Shape" fill="#83E8C2"/>
            <path d="M94.485,123.062 C94.416,122.992 94.355,122.914 94.3,122.83 C94.355,122.914 94.416,122.992 94.485,123.062 Z" id="Shape" fill="#83E8C2"/>
            <path d="M94.771,123.288 C94.677,123.231 94.587,123.167 94.508,123.09 C94.588,123.167 94.678,123.231 94.771,123.288 Z" id="Shape" fill="#83E8C2"/>
            <path d="M77.775,122.508 C77.749,122.588 77.716,122.665 77.676,122.737 C77.717,122.665 77.749,122.588 77.775,122.508 Z" id="Shape" fill="#83E8C2"/>
            <path d="M77.072,123.33 C77,123.367 76.925,123.399 76.847,123.425 C76.925,123.399 77,123.367 77.072,123.33 Z" id="Shape" fill="#83E8C2"/>
            <path d="M77.418,123.088 C77.339,123.164 77.249,123.23 77.154,123.287 C77.249,123.229 77.338,123.164 77.418,123.088 Z" id="Shape" fill="#83E8C2"/>
            <path d="M77.856,122.047 C77.856,122.174 77.836,122.293 77.807,122.407 C77.837,122.293 77.856,122.174 77.856,122.047 Z" id="Shape" fill="#83E8C2"/>
            <path d="M76.749,123.454 C76.658,123.476 76.565,123.491 76.471,123.495 C76.566,123.491 76.658,123.478 76.749,123.454 Z" id="Shape" fill="#83E8C2"/>
            <path d="M94.119,122.411 C94.091,122.297 94.071,122.179 94.071,122.053 C94.071,122.179 94.091,122.297 94.119,122.411 Z" id="Shape" fill="#83E8C2"/>
            <path d="M77.131,133.506 L61.642,124.564 L61.642,126.557 C61.642,127.463 60.899,128.112 60.088,128.112 C59.829,128.112 59.565,128.046 59.315,127.901 L57.589,126.905 L57.589,144.79 C57.589,145.309 57.865,145.787 58.315,146.047 L75.68,156.073 C75.914,156.208 76.162,156.269 76.405,156.269 C77.163,156.269 77.857,155.663 77.857,154.816 L77.857,134.763 C77.856,134.244 77.58,133.766 77.131,133.506 Z" id="Shape" fill="#83E8C2"/>
            <path d="M94.25,122.74 C94.211,122.668 94.179,122.592 94.152,122.511 C94.179,122.592 94.211,122.668 94.25,122.74 Z" id="Shape" fill="#83E8C2"/>
            <path d="M110.285,111.418 C110.285,111.238 110.325,111.068 110.383,110.904 C110.325,111.068 110.285,111.238 110.285,111.418 L110.285,111.418 Z" id="Shape" fill="#83E8C2"/>
            <path d="M94.494,100.975 C94.582,100.886 94.683,100.807 94.797,100.743 L112.162,90.717 L94.797,100.743 C94.684,100.807 94.582,100.886 94.494,100.975 Z" id="Shape" fill="#83E8C2"/>
            <path d="M77.627,122.827 C77.572,122.912 77.51,122.991 77.439,123.062 C77.51,122.991 77.571,122.912 77.627,122.827 Z" id="Shape" fill="#83E8C2"/>
            <path d="M58.027,90.936 C58.106,90.86 58.195,90.794 58.29,90.737 C58.195,90.794 58.106,90.859 58.027,90.936 Z" id="Shape" fill="#83E8C2"/>
            <path d="M58.374,90.693 C58.446,90.655 58.521,90.623 58.598,90.598 C58.521,90.624 58.446,90.655 58.374,90.693 Z" id="Shape" fill="#83E8C2"/>
            <path d="M59.044,90.521 C59.039,90.521 59.034,90.522 59.029,90.522 C59.112,90.521 59.196,90.537 59.28,90.551 C59.201,90.539 59.122,90.521 59.044,90.521 Z" id="Shape" fill="#83E8C2"/>
            <path d="M57.819,91.195 C57.873,91.111 57.935,91.032 58.006,90.961 C57.936,91.032 57.873,91.111 57.819,91.195 Z" id="Shape" fill="#83E8C2"/>
            <path d="M58.696,90.568 C58.787,90.547 58.88,90.532 58.974,90.527 C58.88,90.532 58.787,90.546 58.696,90.568 Z" id="Shape" fill="#83E8C2"/>
            <path d="M57.589,91.977 C57.589,91.85 57.609,91.731 57.638,91.616 C57.608,91.73 57.589,91.85 57.589,91.977 Z" id="Shape" fill="#83E8C2"/>
            <path d="M76.043,123.455 C75.919,123.423 75.796,123.374 75.677,123.306 C75.796,123.374 75.919,123.423 76.043,123.455 Z" id="Shape" fill="#83E8C2"/>
            <path d="M57.67,91.516 C57.696,91.436 57.729,91.36 57.769,91.287 C57.729,91.359 57.696,91.436 57.67,91.516 Z" id="Shape" fill="#83E8C2"/>
            <polygon id="Shape" fill="#83E8C2" points="61.642 115.202 75.677 123.306"/>
            <path d="M76.401,123.502 C76.406,123.502 76.411,123.501 76.416,123.501 C76.334,123.502 76.25,123.485 76.168,123.472 C76.246,123.484 76.324,123.502 76.401,123.502 Z" id="Shape" fill="#83E8C2"/>
            <path d="M112.162,90.716 C112.281,90.647 112.404,90.598 112.527,90.567 C112.404,90.598 112.281,90.646 112.162,90.716 Z" id="Shape" fill="#83E8C2"/>
            <path d="M77.662,101.273 C77.537,101.055 77.355,100.871 77.13,100.741 C77.355,100.871 77.537,101.056 77.662,101.273 Z" id="Shape" fill="#83E8C2"/>
            <path d="M113.639,90.734 C113.733,90.791 113.823,90.856 113.902,90.933 C113.822,90.856 113.732,90.791 113.639,90.734 Z" id="Shape" fill="#83E8C2"/>
            <path d="M96.237,123.312 C96.121,123.377 96.002,123.426 95.883,123.458 C96.002,123.426 96.121,123.377 96.237,123.312 Z" id="Shape" fill="#83E8C2"/>
            <path d="M113.332,90.597 C113.408,90.622 113.482,90.654 113.555,90.692 C113.482,90.653 113.409,90.622 113.332,90.597 Z" id="Shape" fill="#83E8C2"/>
            <path d="M112.886,90.52 C112.811,90.52 112.735,90.538 112.658,90.549 C112.739,90.535 112.82,90.52 112.9,90.521 C112.895,90.521 112.891,90.52 112.886,90.52 Z" id="Shape" fill="#83E8C2"/>
            <path d="M141.261,74.137 C141.02,74.137 140.772,74.199 140.537,74.334 L123.172,84.359 C122.723,84.619 122.445,85.097 122.445,85.616 L122.445,103.501 L124.172,102.505 C124.422,102.36 124.687,102.294 124.945,102.295 C125.755,102.295 126.499,102.942 126.499,103.849 L126.499,105.842 L141.988,96.899 C142.437,96.64 142.714,96.162 142.714,95.643 L142.714,75.59 C142.714,74.743 142.019,74.137 141.261,74.137 Z" id="Shape" fill="#83E8C2"/>
            <path d="M112.959,90.526 C113.051,90.531 113.143,90.545 113.232,90.566 C113.143,90.545 113.052,90.531 112.959,90.526 Z" id="Shape" fill="#83E8C2"/>
            <path d="M95.523,123.504 C95.597,123.504 95.673,123.486 95.748,123.475 C95.668,123.488 95.589,123.503 95.51,123.503 C95.515,123.503 95.52,123.504 95.523,123.504 Z" id="Shape" fill="#83E8C2"/>
            <path d="M95.451,123.497 C95.358,123.492 95.267,123.478 95.178,123.456 C95.268,123.479 95.358,123.492 95.451,123.497 Z" id="Shape" fill="#83E8C2"/>
            <path d="M85.238,86.7 C85.463,86.83 85.713,86.894 85.964,86.894 C85.713,86.895 85.463,86.83 85.238,86.7 Z" id="Shape" fill="#83E8C2"/>
            <path d="M95.078,123.426 C95.001,123.402 94.927,123.369 94.855,123.332 C94.927,123.37 95.001,123.401 95.078,123.426 Z" id="Shape" fill="#83E8C2"/>
            <path d="M141.261,106.901 C141.02,106.901 140.772,106.963 140.537,107.097 L126.499,115.202 L126.499,118.986 C126.499,119.541 126.203,120.053 125.723,120.33 L112.613,127.9 C112.362,128.044 112.098,128.11 111.839,128.11 C111.029,128.11 110.286,127.462 110.286,126.555 L110.286,124.563 L94.798,133.504 C94.349,133.764 94.071,134.242 94.071,134.761 L94.071,154.814 C94.071,155.661 94.766,156.267 95.524,156.267 C95.766,156.267 96.014,156.205 96.248,156.071 L141.989,129.662 C142.438,129.403 142.715,128.924 142.715,128.406 L142.715,108.353 C142.714,107.508 142.019,106.901 141.261,106.901 Z" id="Shape" fill="#83E8C2"/>
            <path d="M67.871,41.396 C66.904,41.955 66.904,43.35 67.871,43.909 L81.909,52.013 L85.187,50.12 C85.427,49.981 85.695,49.913 85.962,49.913 C86.229,49.913 86.498,49.981 86.737,50.12 L99.848,57.69 C100.883,58.287 100.883,59.78 99.848,60.378 L98.121,61.374 L113.611,70.317 C113.836,70.446 114.086,70.51 114.337,70.51 C114.588,70.51 114.838,70.446 115.063,70.317 L132.429,60.29 C133.396,59.732 133.396,58.336 132.429,57.778 L86.688,31.368 C86.463,31.238 86.213,31.173 85.962,31.173 C85.711,31.173 85.461,31.238 85.236,31.368 L67.871,41.396 Z" id="Shape" fill="#83E8C2"/>
            <path d="M39.497,57.779 C38.529,58.337 38.529,59.733 39.497,60.291 L56.863,70.318 C57.088,70.447 57.338,70.511 57.589,70.511 C57.84,70.511 58.09,70.447 58.315,70.318 L73.803,61.375 L72.076,60.379 C71.042,59.781 71.042,58.288 72.076,57.691 L73.803,56.694 L58.314,47.752 C58.089,47.623 57.839,47.558 57.588,47.558 C57.338,47.558 57.088,47.623 56.863,47.752 L39.497,57.779 Z" id="Shape" fill="#83E8C2"/>
            <path d="M49.481,138.434 L49.481,122.225 L46.203,120.331 C45.723,120.055 45.428,119.542 45.428,118.987 L45.428,103.848 C45.428,102.942 46.171,102.293 46.982,102.294 C47.241,102.294 47.505,102.359 47.755,102.504 L49.482,103.501 L49.482,85.615 C49.482,85.096 49.206,84.618 48.756,84.358 L31.39,74.334 C31.157,74.199 30.909,74.137 30.666,74.137 C29.908,74.137 29.214,74.743 29.214,75.59 L29.214,128.407 C29.214,128.925 29.49,129.404 29.94,129.663 L47.305,139.689 C47.539,139.824 47.787,139.885 48.029,139.885 C48.786,139.886 49.481,139.28 49.481,138.434 Z" id="Shape" fill="#83E8C2"/>
            <path d="M114.339,108.182 L111.061,110.075 L114.339,108.182 L114.339,91.973 C114.339,91.846 114.318,91.727 114.29,91.612 C114.318,91.727 114.339,91.846 114.339,91.973 L114.339,108.182 Z" id="Shape" fill="#83E8C2"/>
            <path d="M114.109,91.193 C114.054,91.108 113.992,91.029 113.921,90.958 C113.992,91.029 114.055,91.108 114.109,91.193 Z" id="Shape" fill="#83E8C2"/>
            <path d="M114.159,91.283 C114.199,91.355 114.231,91.431 114.258,91.512 C114.231,91.432 114.199,91.355 114.159,91.283 Z" id="Shape" fill="#83E8C2"/>
            <path d="M94.494,100.975 C94.226,101.244 94.07,101.61 94.07,101.998 L94.07,122.051 C94.07,122.052 94.071,122.053 94.071,122.053 C94.071,122.179 94.091,122.297 94.119,122.411 C94.129,122.445 94.14,122.477 94.152,122.512 C94.178,122.592 94.211,122.668 94.25,122.741 C94.267,122.771 94.282,122.802 94.301,122.831 C94.356,122.915 94.416,122.993 94.486,123.063 C94.495,123.072 94.501,123.083 94.509,123.09 C94.588,123.167 94.678,123.232 94.772,123.288 C94.799,123.305 94.827,123.317 94.856,123.332 C94.927,123.369 95.002,123.401 95.079,123.426 C95.112,123.438 95.144,123.448 95.179,123.456 C95.269,123.478 95.36,123.492 95.452,123.497 C95.472,123.498 95.491,123.502 95.511,123.503 C95.59,123.503 95.669,123.487 95.749,123.475 C95.794,123.468 95.839,123.469 95.884,123.457 C96.003,123.426 96.122,123.377 96.238,123.311 C96.241,123.309 96.245,123.309 96.248,123.307 L110.286,115.203 L110.286,111.418 L110.286,111.418 C110.286,111.238 110.326,111.068 110.384,110.904 C110.506,110.561 110.737,110.261 111.062,110.074 L114.34,108.181 L114.34,91.972 C114.34,91.845 114.319,91.726 114.291,91.611 C114.282,91.578 114.27,91.546 114.259,91.512 C114.233,91.431 114.2,91.355 114.16,91.283 C114.143,91.252 114.128,91.222 114.11,91.193 C114.055,91.108 113.993,91.029 113.922,90.958 C113.914,90.95 113.908,90.941 113.901,90.934 C113.822,90.857 113.732,90.791 113.638,90.735 C113.611,90.719 113.582,90.706 113.554,90.692 C113.482,90.654 113.408,90.623 113.331,90.597 C113.298,90.586 113.265,90.576 113.231,90.567 C113.141,90.546 113.049,90.532 112.958,90.527 C112.937,90.526 112.919,90.522 112.899,90.521 C112.819,90.52 112.738,90.536 112.657,90.549 C112.614,90.557 112.57,90.555 112.526,90.567 C112.403,90.598 112.28,90.647 112.161,90.716 L94.796,100.742 C94.684,100.807 94.582,100.886 94.494,100.975 Z" id="Shape" fill="#DE5941"/>
            <path d="M77.13,100.741 L59.769,90.718 C59.65,90.649 59.526,90.6 59.403,90.569 C59.362,90.557 59.321,90.559 59.281,90.552 C59.197,90.537 59.113,90.522 59.03,90.523 C59.011,90.523 58.994,90.528 58.975,90.528 C58.88,90.533 58.787,90.548 58.697,90.569 C58.663,90.578 58.632,90.589 58.598,90.599 C58.522,90.623 58.447,90.656 58.374,90.694 C58.346,90.708 58.317,90.721 58.29,90.737 C58.195,90.795 58.106,90.86 58.027,90.936 C58.019,90.944 58.013,90.954 58.006,90.961 C57.936,91.032 57.873,91.111 57.819,91.195 C57.8,91.224 57.785,91.256 57.768,91.286 C57.728,91.359 57.696,91.435 57.669,91.515 C57.657,91.548 57.646,91.58 57.637,91.615 C57.608,91.73 57.588,91.849 57.588,91.976 L57.588,108.182 L60.864,110.074 C61.104,110.213 61.299,110.41 61.432,110.642 C61.566,110.873 61.64,111.14 61.64,111.417 L61.64,115.201 L75.675,123.305 C75.794,123.373 75.917,123.422 76.041,123.454 C76.082,123.466 76.123,123.464 76.166,123.471 C76.248,123.485 76.332,123.501 76.414,123.5 C76.433,123.5 76.451,123.495 76.469,123.494 C76.564,123.49 76.657,123.475 76.747,123.453 C76.781,123.445 76.812,123.434 76.846,123.424 C76.923,123.399 76.998,123.366 77.071,123.329 C77.098,123.314 77.127,123.302 77.153,123.286 C77.248,123.228 77.338,123.163 77.417,123.087 C77.425,123.079 77.431,123.069 77.438,123.062 C77.508,122.991 77.571,122.912 77.626,122.827 C77.644,122.798 77.659,122.767 77.676,122.737 C77.716,122.665 77.748,122.588 77.775,122.508 C77.787,122.475 77.798,122.443 77.807,122.407 C77.836,122.293 77.856,122.174 77.856,122.047 L77.856,102 C77.856,101.74 77.787,101.49 77.662,101.273 C77.537,101.056 77.355,100.871 77.13,100.741 Z" id="Shape" fill="#DE5941"/>
            <path d="M86.689,86.7 L104.054,76.674 C105.022,76.115 105.022,74.719 104.054,74.161 L90.016,66.056 L86.738,67.949 C86.259,68.225 85.668,68.225 85.187,67.949 L81.91,66.057 L67.872,74.161 C67.631,74.301 67.449,74.492 67.328,74.711 C67.086,75.147 67.086,75.688 67.328,76.124 C67.449,76.342 67.631,76.534 67.872,76.674 L85.238,86.7 C85.463,86.83 85.713,86.894 85.964,86.894 C86.215,86.894 86.465,86.83 86.689,86.7 Z" id="Shape" fill="#DE5941"/>
        </g>
    </g>
</svg>