<?xml version="1.0" encoding="UTF-8"?>
<!-- Generator: Adobe Illustrator 21.0.2, SVG Export Plug-In . SVG Version: 6.00 Build 0)  -->
<svg version="1.1" id="Layer_1" xmlns="http://www.w3.org/2000/svg" xmlns:xlink="http://www.w3.org/1999/xlink" x="0px" y="0px" viewBox="0 0 800 268" style="enable-background:new 0 0 800 268;" xml:space="preserve">
<style type="text/css">
	.st0{fill:#00175B;}
	.st1{fill:#06EAC3;}
	.st2{fill:#FF583D;}
</style>
<g>
	<path class="st0" d="M548.6,53.9h-21.4c-1.4,0-2.6,1.2-2.6,2.6v104.2c0,17.9,14.5,32.4,32.4,32.4h17.5c1.4,0,2.6-1.2,2.6-2.6V169   c0-1.4-1.2-2.6-2.6-2.6h-17.5c-3.2,0-5.7-2.6-5.7-5.7v-59.2h23.2c1.4,0,2.6-1.2,2.6-2.6V77.4c0-1.4-1.2-2.6-2.6-2.6h-23.2V56.5   C551.2,55,550,53.9,548.6,53.9z"/>
	<path class="st0" d="M404.5,75l-18.2,0.3c-17.8,0-32.2,14.4-32.2,32.2v53.2c0,17.8,14.4,32.2,32.2,32.2l18.2-0.3   c17.8,0,32.2-14.4,32.2-32.2V156c0-1.4-1.2-2.6-2.6-2.6h-21.3c-1.4,0-2.6,1.2-2.6,2.6v4.4c0,3.1-2.5,5.7-5.7,5.7l-18.2,0.3   c-3.1,0-5.7-2.5-5.7-5.7v-13.6l23.9-0.1c17.8,0,32.2-14.4,32.2-32.2v-7.6C436.7,89.4,422.3,75,404.5,75z M410.2,114.8   c0,3.1-2.5,5.7-5.7,5.7l-23.9,0.3v-13.3c0-3.1,2.5-5.7,5.7-5.7l18.2-0.3c3.1,0,5.7,2.5,5.7,5.7V114.8z"/>
	<path class="st0" d="M314.8,80.6v-3c0-1.4-1.2-2.6-2.6-2.6h-21c-1.4,0-2.6,1.2-2.6,2.6v112.8c0,1.4,1.2,2.6,2.6,2.6h21   c1.4,0,2.6-1.2,2.6-2.6v-73.3c0.5-8.9,7.8-15.9,16.8-15.9h13.2c1.4,0,2.6-1.2,2.6-2.6V88.1V77.6c0-1.4-1.2-2.6-2.6-2.6H336   C328.3,75,321,77.1,314.8,80.6z"/>
	<path class="st0" d="M506.9,133.8c-13.5-12.3-38-15.4-38-24.4v-2.4c0-3.2,2.6-5.7,5.7-5.7h25.1c1.4,0,2.6-1.2,2.6-2.6V77.3   c0-1.4-1.2-2.6-2.6-2.6h-25.1c-17.8,0-32.4,15.4-32.4,32.4c0,12.7,4.6,20.9,11,26.7h0c13.5,12.3,38,15.4,38,24.4v2.4   c0,3.2-2.6,5.7-5.7,5.7l-37,0.1c-1.4,0-2.6,1.2-2.6,2.6v21.4c0,1.4,1.2,2.6,2.6,2.6l37-0.1c17.8,0,32.4-15.4,32.4-32.4   C517.9,147.8,513.2,139.6,506.9,133.8L506.9,133.8z"/>
	<path class="st0" d="M760,160.1c-3.1,0-5.7-2.5-5.7-5.7V38.3c0-1.4-1.2-2.6-2.6-2.6h-27.8c-1.4,0-2.6,1.2-2.6,2.6v122.4   c0,17.8,14.4,32.2,32.2,32.2l43.8,0.1c1.5,0,2.6-1.2,2.6-2.6v-27.7c0-1.4-1.2-2.6-2.6-2.6L760,160.1z"/>
	<path class="st0" d="M675.9,36l-53.6-0.1c-17.8,0-32.2,14.4-32.2,32.2v92.8c0,17.8,14.4,32.2,32.2,32.2l10.4,0v17.1   c0,1.4,1.2,2.6,2.6,2.6h27.5c1.4,0,2.6-1.2,2.6-2.6v-17h10.4c17.8,0,32.2-14.4,32.2-32.2V68.2C708.1,50.4,693.7,36,675.9,36z    M675,154.8c0,3.1-2.5,5.7-5.7,5.7l-3.9-0.1v-10.5c0-1.4-1.2-2.6-2.6-2.6h-27.5c-1.4,0-2.6,1.2-2.6,2.6v10.3l-3.9,0.1   c-3.1,0-5.7-2.5-5.7-5.7V74.3c0-3.1,2.5-5.7,5.7-5.7l40.5,0.2c3.1,0,5.7,2.5,5.7,5.7V154.8z"/>
	<path class="st1" d="M111.6,62.1l5.3-3.1c0.8-0.4,1.7-0.4,2.5,0l21.2,12.2c1.7,1,1.7,3.4,0,4.3l-2.8,1.6l25,14.5   c0.7,0.4,1.6,0.4,2.3,0l28.1-16.2c1.6-0.9,1.6-3.2,0-4.1l-74-42.7c-0.7-0.4-1.6-0.4-2.3,0L88.9,44.9c-1.6,0.9-1.6,3.2,0,4.1   L111.6,62.1z"/>
	<path class="st2" d="M160.5,124.7l-28.1,16.2c-0.7,0.4-1.2,1.2-1.2,2v32.4c0,1.8,2,2.9,3.5,2l22.7-13.1v-6.1c0-0.9,0.5-1.7,1.3-2.2   l5.3-3.1v-26.2C164,124.9,162,123.8,160.5,124.7z"/>
	<path class="st1" d="M73.4,91.7l25-14.5l-2.8-1.6c-1.7-1-1.7-3.4,0-4.3l2.8-1.6l-25-14.5c-0.7-0.4-1.6-0.4-2.3,0L43,71.4   c-1.6,0.9-1.6,3.2,0,4.1l28.1,16.2C71.8,92.1,72.7,92.1,73.4,91.7z"/>
	<path class="st1" d="M57.9,114.4L29.9,98.2c-1.6-0.9-3.5,0.2-3.5,2v85.4c0,0.8,0.4,1.6,1.2,2l28.1,16.2c1.6,0.9,3.5-0.2,3.5-2   v-26.2l-5.3-3.1c-0.8-0.4-1.3-1.3-1.3-2.2v-24.5c0-1.9,2.1-3.1,3.8-2.2l2.8,1.6v-28.9C59.1,115.6,58.7,114.8,57.9,114.4z"/>
	<path class="st1" d="M103.8,193.9l-25-14.5v3.2c0,1.9-2.1,3.1-3.8,2.2l-2.8-1.6v28.9c0,0.8,0.4,1.6,1.2,2l28.1,16.2   c1.6,0.9,3.5-0.2,3.5-2v-32.4C105,195.1,104.6,194.3,103.8,193.9z"/>
	<path class="st2" d="M72.2,152.9l5.3,3.1c0.8,0.4,1.3,1.3,1.3,2.2v6.1l22.7,13.1c1.6,0.9,3.5-0.2,3.5-2v-32.4c0-0.8-0.4-1.6-1.2-2   l-28.1-16.2c-1.6-0.9-3.5,0.2-3.5,2V152.9z"/>
	<path class="st2" d="M147.4,97.9l-22.7-13.1l-5.3,3.1c-0.8,0.4-1.7,0.4-2.5,0l-5.3-3.1L88.9,97.9c-1.6,0.9-1.6,3.2,0,4.1l28.1,16.2   c0.7,0.4,1.6,0.4,2.3,0l28.1-16.2C148.9,101.1,148.9,98.8,147.4,97.9z"/>
	<path class="st1" d="M206.4,151.2l-22.7,13.1v6.1c0,0.9-0.5,1.7-1.3,2.2l-21.2,12.2c-1.7,1-3.8-0.2-3.8-2.2v-3.2l-25,14.5   c-0.7,0.4-1.2,1.2-1.2,2v32.4c0,1.8,2,2.9,3.5,2l74-42.7c0.7-0.4,1.2-1.2,1.2-2v-32.4C209.9,151.4,207.9,150.3,206.4,151.2z"/>
	<path class="st1" d="M206.4,98.2l-28.1,16.2c-0.7,0.4-1.2,1.2-1.2,2v28.9l2.8-1.6c1.7-1,3.8,0.2,3.8,2.2v3.2l25-14.5   c0.7-0.4,1.2-1.2,1.2-2v-32.4C209.9,98.4,207.9,97.3,206.4,98.2z"/>
	<path class="st0" d="M229.6,62.1L124.7,1.5c-4.1-2.3-9.1-2.3-13.1,0L6.7,62.1c-4.1,2.3-6.6,6.7-6.6,11.4v121.1   c0,4.7,2.5,9,6.6,11.4l104.9,60.6c2,1.2,4.3,1.8,6.6,1.8s4.5-0.6,6.6-1.8l104.9-60.6c4.1-2.3,6.6-6.7,6.6-11.4V73.4   C236.1,68.8,233.6,64.4,229.6,62.1z M88.9,44.9l28.1-16.2c0.7-0.4,1.6-0.4,2.3,0l74,42.7c1.6,0.9,1.6,3.2,0,4.1l-28.1,16.2   c-0.7,0.4-1.6,0.4-2.3,0l-25-14.5l2.8-1.6c1.7-1,1.7-3.4,0-4.3L119.4,59c-0.8-0.4-1.7-0.4-2.5,0l-5.3,3.1L88.9,49   C87.3,48.1,87.3,45.8,88.9,44.9z M164,126.7v26.2l-5.3,3.1c-0.8,0.4-1.3,1.3-1.3,2.2v6.1l-22.7,13.1c-1.6,0.9-3.5-0.2-3.5-2v-32.4   c0-0.8,0.4-1.6,1.2-2l28.1-16.2C162,123.8,164,124.9,164,126.7z M59.1,145.4l-2.8-1.6c-1.7-1-3.8,0.2-3.8,2.2v24.5   c0,0.9,0.5,1.7,1.3,2.2l5.3,3.1v26.2c0,1.8-2,2.9-3.5,2l-28.1-16.2c-0.7-0.4-1.2-1.2-1.2-2v-85.4c0-1.8,2-2.9,3.5-2l28.1,16.2   c0.7,0.4,1.2,1.2,1.2,2V145.4z M43,75.5c-1.6-0.9-1.6-3.2,0-4.1l28.1-16.2c0.7-0.4,1.6-0.4,2.3,0l25,14.5l-2.8,1.6   c-1.7,1-1.7,3.4,0,4.3l2.8,1.6l-25,14.5c-0.7,0.4-1.6,0.4-2.3,0L43,75.5z M105,228.3c0,1.8-2,2.9-3.5,2l-28.1-16.2   c-0.7-0.4-1.2-1.2-1.2-2v-28.9l2.8,1.6c1.7,1,3.8-0.2,3.8-2.2v-3.2l25,14.5c0.7,0.4,1.2,1.2,1.2,2V228.3z M101.5,177.4l-22.7-13.1   v-6.1c0-0.9-0.5-1.7-1.3-2.2l-5.3-3.1v-26.2c0-1.8,2-2.9,3.5-2l28.1,16.2c0.7,0.4,1.2,1.2,1.2,2v32.4   C105,177.2,103,178.3,101.5,177.4z M119.3,118.2c-0.7,0.4-1.6,0.4-2.3,0L88.9,102c-1.6-0.9-1.6-3.2,0-4.1l22.7-13.1l5.3,3.1   c0.8,0.4,1.7,0.4,2.5,0l5.3-3.1l22.7,13.1c1.6,0.9,1.6,3.2,0,4.1L119.3,118.2z M209.9,185.6c0,0.8-0.4,1.6-1.2,2l-74,42.7   c-1.6,0.9-3.5-0.2-3.5-2v-32.4c0-0.8,0.4-1.6,1.2-2l25-14.5v3.2c0,1.9,2.1,3.1,3.8,2.2l21.2-12.2c0.8-0.4,1.3-1.3,1.3-2.2v-6.1   l22.7-13.1c1.6-0.9,3.5,0.2,3.5,2V185.6z M209.9,132.6c0,0.8-0.4,1.6-1.2,2l-25,14.5v-3.2c0-1.9-2.1-3.1-3.8-2.2l-2.8,1.6v-28.9   c0-0.8,0.4-1.6,1.2-2l28.1-16.2c1.6-0.9,3.5,0.2,3.5,2V132.6z"/>
</g>
</svg>